#!OML:ASF E:\Steps\Project 1\Capture day 1\Session 2\Subject.ASF
:FULLY-SPECIFIED
:DEGREES
490
root 3.47174 18.7643 7.27395 -153.741 -2.06105 177.008
lowerback -31.9921 -2.76146 -7.40346
upperback -3.31821 -2.12557 -0.693826
thorax 13.0008 -1.8261 2.26331
lowerneck -3.51814 -2.94339 -1.63903
upperneck -1.68191 -3.77058 3.81141
head 0.178086 -1.82376 1.39999
rclavicle 7.42958e-015 7.95139e-015
rhumerus -31.6702 -18.1223 -81.356
rradius 28.2945
rwrist 0.735205
rhand -9.84956 -413.125
rfingers 7.12502
rthumb 16.1285 -442.473
lclavicle 7.42958e-015 7.95139e-015
lhumerus -28.8608 -1.68852 85.1978
lradius 22.4531
lwrist -1.82486
lhand -22.2041 -13.8014
lfingers 7.12502
lthumb 4.21163 16.1367
rfemur -22.2535 6.60365 17.815
rtibia 8.58155
rfoot -22.256 0.692347
rtoes -16.0299
lfemur -20.9621 -6.60809 -25.832
ltibia 9.59617
lfoot -11.5599 -0.303389
ltoes -23.366
491
root 3.47157 18.7632 7.26929 -153.713 -2.18256 177.051
lowerback -32.0708 -2.72128 -7.38598
upperback -3.28982 -2.06313 -0.737278
thorax 13.0585 -1.79731 2.22883
lowerneck -3.741 -2.94761 -1.50132
upperneck -1.60217 -3.78124 3.63686
head 0.233071 -1.82746 1.31726
rclavicle 3.62782e-015 1.43125e-014
rhumerus -31.6245 -18.2703 -81.4186
rradius 28.273
rwrist 0.830001
rhand -9.8837 -413.212
rfingers 7.12502
rthumb 16.0956 -442.563
lclavicle 3.62782e-015 1.43125e-014
lhumerus -28.7497 -1.74966 85.1198
lradius 22.5956
lwrist -1.69908
lhand -21.9792 -14.0079
lfingers 7.12502
lthumb 4.42885 15.9258
rfemur -22.1814 6.58534 17.8974
rtibia 8.46605
rfoot -22.2535 0.654573
rtoes -16.1603
lfemur -20.9748 -6.61725 -25.7381
ltibia 9.66445
lfoot -11.5648 -0.540558
ltoes -21.3915
492
root 3.47038 18.7608 7.26295 -153.693 -2.29316 177.09
lowerback -32.1362 -2.66986 -7.36607
upperback -3.30738 -1.99894 -0.790225
thorax 13.0568 -1.76926 2.18445
lowerneck -3.57831 -2.93078 -1.44534
upperneck -1.7133 -3.75424 3.8113
head 0.173847 -1.81399 1.36628
rclavicle -5.91384e-015 -2.98177e-014
rhumerus -31.6921 -18.4475 -81.4348
rradius 28.3079
rwrist 0.803371
rhand -9.54794 -412.974
rfingers 7.12502
rthumb 16.4189 -442.299
lclavicle -5.91384e-015 -2.98177e-014
lhumerus -28.7335 -1.87599 85.0861
lradius 22.7157
lwrist -1.62483
lhand -21.9915 -13.5765
lfingers 7.12502
lthumb 4.41696 16.3574
rfemur -22.0859 6.59671 17.9547
rtibia 8.31532
rfoot -22.1648 0.612859
rtoes -15.9401
lfemur -20.9707 -6.6843 -25.651
ltibia 9.69754
lfoot -11.5592 -0.674448
ltoes -19.9277
493
root 3.46744 18.7599 7.26123 -153.654 -2.29572 177.13
lowerback -32.1479 -2.6099 -7.32645
upperback -3.36943 -1.94852 -0.807572
thorax 12.9843 -1.74714 2.16518
lowerneck -3.42882 -2.87208 -1.56744
upperneck -1.57656 -3.68261 3.9027
head 0.193799 -1.7804 1.41837
rclavicle 3.32964e-015 2.66371e-014
rhumerus -31.7479 -18.4114 -81.4104
rradius 28.3597
rwrist 0.674532
rhand -9.07761 -412.822
rfingers 7.12502
rthumb 16.8717 -442.109
lclavicle 3.32964e-015 2.66371e-014
lhumerus -28.6857 -1.78104 85.0706
lradius 22.6469
lwrist -1.68672
lhand -22.4226 -12.847
lfingers 7.12502
lthumb 4.00068 17.0952
rfemur -22.1241 6.6307 17.9711
rtibia 8.30171
rfoot -22.093 0.598665
rtoes -15.8996
lfemur -21.008 -6.69371 -25.6177
ltibia 9.64858
lfoot -11.5251 -0.560652
ltoes -20.8952
494
root 3.46477 18.7599 7.26264 -153.638 -2.29021 177.113
lowerback -32.2189 -2.61346 -7.35485
upperback -3.33132 -1.93189 -0.79222
thorax 13.0573 -1.74155 2.20044
lowerneck -3.35869 -2.87398 -1.69223
upperneck -1.68901 -3.67589 3.99419
head 0.151871 -1.77675 1.47085
rclavicle -9.29318e-015 -7.55382e-015
rhumerus -31.6255 -18.3158 -81.3787
rradius 28.2463
rwrist 0.712015
rhand -9.20874 -412.518
rfingers 7.12502
rthumb 16.7455 -441.816
lclavicle -9.29318e-015 -7.55382e-015
lhumerus -28.5233 -1.53242 85.0662
lradius 22.6119
lwrist -1.71843
lhand -22.9525 -12.4308
lfingers 7.12502
lthumb 3.489 17.5204
rfemur -22.1152 6.56876 17.9391
rtibia 8.22494
rfoot -21.9974 0.473363
rtoes -16.2641
lfemur -21.0203 -6.70838 -25.6563
ltibia 9.56736
lfoot -11.475 -0.430514
ltoes -22.064
495
root 3.46123 18.7596 7.25927 -153.685 -2.3103 177.088
lowerback -32.4251 -2.63634 -7.40872
upperback -3.16304 -1.89248 -0.765764
thorax 13.3359 -1.72559 2.26436
lowerneck -3.44656 -2.85334 -1.71576
upperneck -1.70063 -3.64661 3.90848
head 0.160662 -1.76149 1.447
rclavicle 4.42296e-015 2.5842e-014
rhumerus -31.3344 -18.3928 -81.3235
rradius 27.9256
rwrist 1.01685
rhand -9.47717 -412.065
rfingers 7.12502
rthumb 16.4871 -441.385
lclavicle 4.42296e-015 2.5842e-014
lhumerus -28.2787 -1.31044 85.0729
lradius 22.6738
lwrist -1.71705
lhand -23.0962 -12.5299
lfingers 7.12502
lthumb 3.35015 17.4235
rfemur -21.9635 6.39958 17.9394
rtibia 8.06143
rfoot -21.8818 0.434519
rtoes -16.4812
lfemur -20.9306 -6.71013 -25.7081
ltibia 9.53263
lfoot -11.4933 -0.497519
ltoes -21.5562
496
root 3.45779 18.76 7.25283 -153.78 -2.29859 177.102
lowerback -32.5253 -2.60783 -7.41497
upperback -3.0443 -1.81764 -0.761341
thorax 13.5091 -1.69013 2.29877
lowerneck -3.19991 -2.95271 -1.85079
upperneck -1.82981 -3.77186 4.10448
head 0.090576 -1.82579 1.53542
rclavicle -1.20265e-014 -3.18055e-014
rhumerus -31.1611 -18.3771 -81.3514
rradius 27.7827
rwrist 1.16146
rhand -9.40551 -412.615
rfingers 7.12502
rthumb 16.5561 -441.929
lclavicle -1.20265e-014 -3.18055e-014
lhumerus -28.1971 -1.29359 85.0697
lradius 22.8324
lwrist -1.58643
lhand -22.8447 -12.9532
lfingers 7.12502
lthumb 3.59309 16.9962
rfemur -21.7952 6.31987 17.9745
rtibia 7.97563
rfoot -21.9278 0.667023
rtoes -16.2488
lfemur -20.7628 -6.58324 -25.7455
ltibia 9.48687
lfoot -11.5205 -0.625938
ltoes -21.2917
497
root 3.45553 18.7615 7.25042 -153.832 -2.29938 177.154
lowerback -32.5108 -2.54329 -7.38548
upperback -3.00928 -1.73231 -0.780053
thorax 13.5354 -1.64777 2.29857
lowerneck -3.2364 -2.76754 -1.81696
upperneck -1.7213 -3.70783 4.0957
head 0.126615 -1.87327 1.52617
rclavicle 1.3418e-015 4.77083e-015
rhumerus -31.1804 -18.3246 -81.4102
rradius 27.8717
rwrist 1.12075
rhand -9.33878 -412.992
rfingers 7.12502
rthumb 16.6203 -442.3
lclavicle 1.3418e-015 4.77083e-015
lhumerus -28.1913 -1.39013 85.0498
lradius 22.9641
lwrist -1.43144
lhand -22.5375 -13.2206
lfingers 7.12502
lthumb 3.88969 16.7236
rfemur -21.7318 6.31495 18.0345
rtibia 7.98569
rfoot -21.9944 0.85135
rtoes -16.0042
lfemur -20.6599 -6.4367 -25.7219
ltibia 9.40125
lfoot -11.5063 -0.705906
ltoes -21.6315
498
root 3.45399 18.7626 7.25082 -153.816 -2.32058 177.187
lowerback -32.5216 -2.47557 -7.36642
upperback -2.97063 -1.63421 -0.830901
thorax 13.574 -1.60084 2.27314
lowerneck -3.32084 -2.86532 -1.74065
upperneck -1.9564 -3.84305 4.07769
head 0.0701821 -1.94658 1.50605
rclavicle -4.05024e-015 5.96354e-015
rhumerus -31.2293 -18.391 -81.4407
rradius 27.9746
rwrist 1.07525
rhand -9.25708 -412.502
rfingers 7.12502
rthumb 16.699 -441.804
lclavicle -4.05024e-015 5.96354e-015
lhumerus -28.1334 -1.5627 85.0316
lradius 23.0651
lwrist -1.36332
lhand -22.4227 -13.0687
lfingers 7.12502
lthumb 4.00063 16.8735
rfemur -21.8199 6.38573 18.0567
rtibia 8.14236
rfoot -22.0563 0.776189
rtoes -16.1037
lfemur -20.6887 -6.3704 -25.6881
ltibia 9.41652
lfoot -11.5171 -0.769488
ltoes -21.4939
499
root 3.45241 18.7637 7.253 -153.786 -2.3626 177.163
lowerback -32.4616 -2.46053 -7.41881
upperback -2.97264 -1.59637 -0.848456
thorax 13.5426 -1.58465 2.29975
lowerneck -3.53435 -2.87641 -1.67501
upperneck -2.01605 -3.86144 3.93474
head 0.0832048 -1.95667 1.4463
rclavicle -3.72721e-015 2.0276e-014
rhumerus -31.2769 -18.2375 -81.4885
rradius 28.0572
rwrist 0.836804
rhand -9.21285 -412.434
rfingers 7.12502
rthumb 16.7415 -441.732
lclavicle -3.72721e-015 2.0276e-014
lhumerus -28.1852 -1.696 85.0624
lradius 23.2457
lwrist -1.26869
lhand -22.4649 -12.9107
lfingers 7.12502
lthumb 3.95985 17.0323
rfemur -21.9227 6.31634 18.0418
rtibia 8.2637
rfoot -22.1433 0.826551
rtoes -16.3525
lfemur -20.784 -6.43074 -25.7009
ltibia 9.53719
lfoot -11.5859 -0.732371
ltoes -21.725
500
root 3.45043 18.764 7.25474 -153.75 -2.36653 177.173
lowerback -32.3608 -2.45271 -7.45961
upperback -3.02876 -1.59264 -0.820865
thorax 13.4361 -1.58415 2.35699
lowerneck -3.49109 -2.87206 -1.69906
upperneck -2.12113 -3.85589 4.0143
head 0.0457388 -1.95657 1.4774
rclavicle 9.26834e-015 2.26615e-014
rhumerus -31.3158 -18.0628 -81.4991
rradius 28.0187
rwrist 0.672621
rhand -9.4076 -412.315
rfingers 7.12502
rthumb 16.554 -441.629
lclavicle 9.26834e-015 2.26615e-014
lhumerus -28.3186 -1.65578 85.0688
lradius 23.3833
lwrist -1.18644
lhand -22.4164 -12.9078
lfingers 7.12502
lthumb 4.00667 17.0343
rfemur -21.9955 6.10508 18.0816
rtibia 8.30031
rfoot -22.1616 0.982417
rtoes -16.7279
lfemur -20.8481 -6.54235 -25.6732
ltibia 9.56264
lfoot -11.6461 -0.583042
ltoes -22.1649
